<svg version="1.1" viewBox="0 0 45 54" xmlns="http://www.w3.org/2000/svg">
<path pid="0" fill="#ffb448" d="M40.48 51.05H10.92A4.44 4.44 0 016.4 46.7V4.35A4.44 4.44 0 0110.92 0h22.3L45 11.58V46.7a4.44 4.44 0 01-4.52 4.35z"></path><g fill="#2b3954"><path pid="1" d="M27.23 3H5.41A5.42 5.42 0 000 8.42v40.17A5.42 5.42 0 005.41 54h27a5.41 5.41 0 005.41-5.41V13.78zm8 11.82v1.52H25.12V5.59h1zm-2.86 36.6h-27a2.83 2.83 0 01-2.83-2.83V8.42a2.83 2.83 0 012.87-2.83h17.13v12a1.29 1.29 0 001.29 1.29h11.38v29.71a2.84 2.84 0 01-2.84 2.83z"></path><path pid="2" d="M17.496 42.489l5.128-18.617 2.217.61L19.713 43.1zM15.54 39.14l-7.06-5.62 7.06-5.69 1.45 1.79-4.82 3.89 4.81 3.82-1.44 1.81zM26.72 39.14l-1.44-1.81 4.81-3.82-4.81-3.89 1.44-1.79 7.06 5.69-7.06 5.62z"></path></g>
</svg>