<svg version="1.1" viewBox="0 0 45 54" xmlns="http://www.w3.org/2000/svg"><path pid="0" fill="#ffb448" d="M40.48 51.05H10.92A4.44 4.44 0 016.4 46.7V4.35A4.44 4.44 0 0110.92 0h22.3L45 11.58V46.7a4.44 4.44 0 01-4.52 4.35z"></path><g fill="#2b3954"><path pid="1" d="M27.23 3H5.41A5.42 5.42 0 000 8.42v40.17A5.42 5.42 0 005.41 54h27a5.41 5.41 0 005.41-5.41V13.78zm8 11.82v1.52H25.12V5.59h1zm-2.86 36.6h-27a2.83 2.83 0 01-2.83-2.83V8.42a2.83 2.83 0 012.87-2.83h17.13v12a1.29 1.29 0 001.29 1.29h11.38v29.71a2.84 2.84 0 01-2.84 2.83z"></path><path pid="2" d="M27.41 28.59h-17a1.29 1.29 0 010-2.58h17a1.29 1.29 0 010 2.58zm1.29 4.89a1.29 1.29 0 00-1.29-1.29h-17a1.29 1.29 0 000 2.58h17a1.29 1.29 0 001.29-1.29zm0 6.19a1.29 1.29 0 00-1.29-1.29h-17a1.29 1.29 0 100 2.57h17a1.28 1.28 0 001.29-1.28z"></path></g></svg>