<svg version="1.1" viewBox="0 0 41.15 44.12" xmlns="http://www.w3.org/2000/svg"><path pid="0" fill="#ffb448" d="M40.8 30.63l-12.32-15a12.81 12.81 0 00.19-2.25 13.4 13.4 0 10-8.2 12.37l-.46.55a16.88 16.88 0 01-3.26 1.22L19.51 30a1.38 1.38 0 00.57.31l2.7.8v3.1a1.48 1.48 0 00.37 1l5.36 6.26a1.51 1.51 0 001.16.53h8.94c.84 0 2-.68 2-1.52l.51-8.82a1.56 1.56 0 00-.32-1.03z"></path><g fill="#2b3954"><path pid="1" d="M37.53 31.79L26.36 18.38a12.8 12.8 0 00.26-2.57A13.29 13.29 0 000 15.79v.49a5 5 0 00.12 1.45 1.52 1.52 0 001.81 1.18 1.51 1.51 0 001.18-1.8 2.35 2.35 0 01-.06-.72v-.6A10.24 10.24 0 1113.31 26a9.59 9.59 0 01-7.09-2.85 1.52 1.52 0 10-2.17 2.14 12.67 12.67 0 009.26 3.76h.53a1.59 1.59 0 00.29.35l3.13 2.71a1.59 1.59 0 00.57.31l2.7.8v3.1a1.5 1.5 0 00.37 1l5.36 6.26a1.53 1.53 0 001.16.53h8.94a1.53 1.53 0 001.53-1.52v-9.83a1.51 1.51 0 00-.36-.97zm-2.7 9.28h-6.71l-4.53-5.3v-3.68a1.53 1.53 0 00-1.1-1.46L19 29.6l-1.43-1.23a13.34 13.34 0 007.6-6.63l9.65 11.58z"></path><circle pid="2" cx="30.25" cy="35.3" r="2.46"></circle></g></svg>